<?xml version="1.0" standalone="no"?>
<!DOCTYPE svg PUBLIC "-//W3C//DTD SVG 20010904//EN"
 "http://www.w3.org/TR/2001/REC-SVG-20010904/DTD/svg10.dtd">
<svg version="1.0" xmlns="http://www.w3.org/2000/svg"
 width="24.000000pt" height="24.000000pt" viewBox="0 0 24.000000 24.000000"
 preserveAspectRatio="xMidYMid meet">

<g transform="translate(0.000000,24.000000) scale(0.100000,-0.100000)"
fill="#000000" stroke="none">
<path d="M53 219 c-97 -62 -45 -214 74 -214 39 0 49 5 79 37 40 44 44 63 12
51 -95 -33 -163 38 -123 130 9 22 -3 21 -42 -4z m14 -51 c0 -57 44 -98 106
-98 l42 -1 -28 -24 c-90 -79 -220 44 -146 139 11 14 22 26 23 26 2 0 3 -19 3
-42z"/>
</g>
</svg>
