<?xml version="1.0" standalone="no"?>
<!DOCTYPE svg PUBLIC "-//W3C//DTD SVG 20010904//EN"
 "http://www.w3.org/TR/2001/REC-SVG-20010904/DTD/svg10.dtd">
<svg version="1.0" xmlns="http://www.w3.org/2000/svg"
 width="64.000000pt" height="64.000000pt" viewBox="0 0 64.000000 64.000000"
 preserveAspectRatio="xMidYMid meet">

<g transform="translate(0.000000,64.000000) scale(0.100000,-0.100000)"
fill="#000000" stroke="none">
<path d="M45 557 c-3 -7 -4 -118 -3 -247 l3 -235 275 0 275 0 0 245 0 245
-273 3 c-215 2 -274 0 -277 -11z m535 -37 l0 -30 -260 0 -260 0 0 30 0 30 260
0 260 0 0 -30z m0 -240 l0 -190 -260 0 -260 0 0 190 0 190 260 0 260 0 0 -190z"/>
<path d="M110 520 c0 -6 37 -10 90 -10 53 0 90 4 90 10 0 6 -37 10 -90 10 -53
0 -90 -4 -90 -10z"/>
<path d="M430 520 c0 -5 5 -10 10 -10 6 0 10 5 10 10 0 6 -4 10 -10 10 -5 0
-10 -4 -10 -10z"/>
<path d="M470 520 c0 -5 5 -10 10 -10 6 0 10 5 10 10 0 6 -4 10 -10 10 -5 0
-10 -4 -10 -10z"/>
<path d="M510 520 c0 -5 5 -10 10 -10 6 0 10 5 10 10 0 6 -4 10 -10 10 -5 0
-10 -4 -10 -10z"/>
<path d="M205 437 c-10 -8 -16 -23 -13 -38 2 -19 9 -24 33 -24 25 0 31 4 33
27 4 34 -26 54 -53 35z m35 -32 c0 -8 -7 -15 -15 -15 -8 0 -15 7 -15 15 0 8 7
15 15 15 8 0 15 -7 15 -15z"/>
<path d="M288 330 c-18 -25 -27 -30 -49 -25 -24 6 -31 -1 -78 -75 -28 -45 -49
-85 -46 -91 8 -12 402 -12 410 0 3 6 -18 46 -46 91 -49 76 -53 81 -80 75 -16
-4 -29 -3 -29 2 0 12 -39 53 -50 53 -5 0 -19 -14 -32 -30z m88 -70 c27 -44 52
-80 56 -80 13 0 9 11 -17 55 -22 39 -24 55 -4 55 6 0 89 -126 89 -136 0 -2
-81 -4 -180 -4 -99 0 -180 2 -180 4 0 10 83 136 89 136 20 0 19 -17 -4 -56
-27 -45 -29 -54 -17 -54 4 0 30 36 57 80 27 44 53 80 56 80 4 0 28 -36 55 -80z"/>
</g>
</svg>
